<svg width="540" height="150" viewBox="0 0 540 150" fill="none" xmlns="http://www.w3.org/2000/svg">
<rect width="270" height="150" fill="white"/>
<rect x="270" width="270" height="150" fill="#512BD4"/>
<path d="M315.873 114.691C313.964 114.691 312.341 113.989 311.005 112.584C309.668 111.142 309 109.431 309 107.45C309 105.432 309.668 103.703 311.005 102.261C312.341 100.82 313.964 100.099 315.873 100.099C317.814 100.099 319.452 100.82 320.789 102.261C322.157 103.703 322.841 105.432 322.841 107.45C322.841 109.431 322.157 111.142 320.789 112.584C319.452 113.989 317.814 114.691 315.873 114.691Z" fill="white"/>
<path d="M392.191 113.503H379.782L347.089 56.5379C346.262 55.0966 345.577 53.601 345.036 52.0518H344.75C345.005 53.7096 345.132 57.2585 345.132 62.6987V113.503H334.154V36H347.375L378.971 91.6136C380.307 93.9201 381.166 95.5053 381.548 96.3698H381.739C381.421 94.3164 381.261 90.8394 381.261 85.9387V36H392.191V113.503Z" fill="white"/>
<path d="M445.648 113.503H407.227V36H444.121V46.9177H418.587V68.8602H442.116V79.7236H418.587V102.639H445.648V113.503Z" fill="white"/>
<path d="M500.25 46.9177H480.587V113.503H469.227V46.9177H449.611V36H500.25V46.9177Z" fill="white"/>
<path d="M99.0277 61.4719C99.0277 63.4818 99.245 65.1115 99.6252 66.3066C100.06 67.5016 100.603 68.8053 101.364 70.2177C101.635 70.6523 101.744 71.0868 101.744 71.4671C101.744 72.0103 101.418 72.5535 100.712 73.0967L97.2894 75.3782C96.8005 75.7042 96.3116 75.8671 95.877 75.8671C95.3338 75.8671 94.7906 75.5955 94.2474 75.1066C93.4869 74.2918 92.835 73.4227 92.2918 72.5535C91.7486 71.6301 91.2054 70.598 90.6079 69.3486C86.3708 74.3461 81.0473 76.8449 74.6373 76.8449C70.0743 76.8449 66.4348 75.5412 63.773 72.9338C61.1113 70.3263 59.7532 66.8498 59.7532 62.5041C59.7532 57.8867 61.3829 54.1385 64.6965 51.3138C68.0101 48.4891 72.4101 47.0767 78.0053 47.0767C79.8522 47.0767 81.7534 47.2397 83.7633 47.5113C85.7732 47.7829 87.8375 48.2175 90.0103 48.7064V44.7409C90.0103 40.6125 89.1412 37.7334 87.4572 36.0495C85.7189 34.3655 82.7856 33.5507 78.6028 33.5507C76.7015 33.5507 74.746 33.768 72.7361 34.2569C70.7262 34.7458 68.7706 35.3433 66.8694 36.1038C66.0002 36.4841 65.3484 36.7013 64.9681 36.81C64.5878 36.9186 64.3162 36.9729 64.099 36.9729C63.3385 36.9729 62.9582 36.4297 62.9582 35.289V32.6272C62.9582 31.7581 63.0668 31.1062 63.3385 30.726C63.6101 30.3457 64.099 29.9655 64.8595 29.5852C66.7607 28.6074 69.0422 27.7926 71.704 27.1408C74.3657 26.4346 77.1904 26.1086 80.1781 26.1086C86.6424 26.1086 91.3684 27.5753 94.4104 30.5087C97.398 33.442 98.919 37.8964 98.919 43.8718V61.4719H99.0277ZM76.9732 69.7288C78.7658 69.7288 80.6127 69.4029 82.5683 68.751C84.5238 68.0992 86.2621 66.9041 87.7288 65.2744C88.598 64.2423 89.2498 63.1016 89.5757 61.7979C89.9017 60.4942 90.119 58.9188 90.119 57.0719V54.7904C88.5436 54.4101 86.8597 54.0842 85.1214 53.8669C83.3831 53.6496 81.6991 53.541 80.0152 53.541C76.3756 53.541 73.7139 54.2472 71.9213 55.7139C70.1286 57.1805 69.2595 59.2448 69.2595 61.9608C69.2595 64.514 69.9114 66.4152 71.2694 67.7189C72.5731 69.077 74.4744 69.7288 76.9732 69.7288ZM120.593 75.5955C119.616 75.5955 118.964 75.4326 118.529 75.0523C118.095 74.7264 117.714 73.9659 117.388 72.9338L104.623 30.9433C104.297 29.8568 104.134 29.1506 104.134 28.7704C104.134 27.9013 104.568 27.4124 105.438 27.4124H110.761C111.793 27.4124 112.499 27.5753 112.88 27.9556C113.314 28.2815 113.64 29.042 113.966 30.0741L123.092 66.035L131.566 30.0741C131.838 28.9877 132.164 28.2815 132.598 27.9556C133.033 27.6296 133.793 27.4124 134.771 27.4124H139.117C140.149 27.4124 140.855 27.5753 141.29 27.9556C141.724 28.2815 142.105 29.042 142.322 30.0741L150.905 66.4695L160.302 30.0741C160.628 28.9877 161.009 28.2815 161.389 27.9556C161.823 27.6296 162.53 27.4124 163.507 27.4124H168.559C169.428 27.4124 169.917 27.8469 169.917 28.7704C169.917 29.042 169.863 29.3136 169.809 29.6395C169.754 29.9655 169.646 30.4 169.428 30.9976L156.337 72.9881C156.011 74.0745 155.631 74.7807 155.196 75.1066C154.762 75.4326 154.055 75.6499 153.132 75.6499H148.46C147.428 75.6499 146.722 75.4869 146.287 75.1066C145.853 74.7264 145.473 74.0202 145.255 72.9338L136.835 37.8964L128.47 72.8795C128.198 73.9659 127.872 74.6721 127.438 75.0523C127.003 75.4326 126.243 75.5955 125.265 75.5955H120.593ZM190.396 77.0622C187.572 77.0622 184.747 76.7363 182.031 76.0844C179.315 75.4326 177.196 74.7264 175.784 73.9116C174.915 73.4227 174.317 72.8795 174.1 72.3906C173.883 71.9017 173.774 71.3585 173.774 70.8696V68.0992C173.774 66.9584 174.209 66.4152 175.023 66.4152C175.349 66.4152 175.675 66.4695 176.001 66.5782C176.327 66.6868 176.816 66.9041 177.359 67.1214C179.206 67.9362 181.216 68.5881 183.335 69.0226C185.508 69.4572 187.626 69.6745 189.799 69.6745C193.221 69.6745 195.883 69.077 197.73 67.8819C199.577 66.6868 200.555 64.9485 200.555 62.7213C200.555 61.2003 200.066 59.9509 199.088 58.9188C198.11 57.8867 196.263 56.9633 193.601 56.0941L185.725 53.6496C181.759 52.4003 178.826 50.5533 177.033 48.1089C175.241 45.7187 174.317 43.057 174.317 40.2322C174.317 37.9507 174.806 35.9408 175.784 34.2025C176.762 32.4643 178.065 30.9433 179.695 29.7482C181.325 28.4988 183.172 27.5753 185.345 26.9235C187.517 26.2716 189.799 26 192.189 26C193.384 26 194.634 26.0543 195.829 26.2173C197.078 26.3803 198.219 26.5975 199.36 26.8148C200.446 27.0864 201.478 27.358 202.456 27.684C203.434 28.0099 204.194 28.3358 204.737 28.6618C205.498 29.0963 206.041 29.5309 206.367 30.0198C206.693 30.4544 206.856 31.0519 206.856 31.8124V34.3655C206.856 35.5063 206.421 36.1038 205.606 36.1038C205.172 36.1038 204.466 35.8865 203.542 35.4519C200.446 34.0396 196.969 33.3334 193.113 33.3334C190.016 33.3334 187.572 33.8223 185.888 34.8544C184.204 35.8865 183.335 37.4618 183.335 39.689C183.335 41.21 183.878 42.5137 184.964 43.5458C186.051 44.578 188.061 45.6101 190.94 46.5335L198.653 48.978C202.564 50.2274 205.389 51.9657 207.073 54.1929C208.757 56.42 209.572 58.9732 209.572 61.7979C209.572 64.1337 209.083 66.2522 208.16 68.0992C207.182 69.9461 205.878 71.5757 204.194 72.8795C202.51 74.2375 200.5 75.2153 198.164 75.9215C195.72 76.682 193.167 77.0622 190.396 77.0622Z" fill="#252F3E"/>
<path fill-rule="evenodd" clip-rule="evenodd" d="M200.663 103.462C182.791 116.663 156.826 123.67 134.5 123.67C103.21 123.67 75.0176 112.1 53.7236 92.8698C52.0396 91.3488 53.5606 89.2846 55.5705 90.4796C78.6028 103.843 107.013 111.937 136.401 111.937C156.228 111.937 178.011 107.808 198.056 99.334C201.044 97.976 203.597 101.29 200.663 103.462Z" fill="#FF9900"/>
<path fill-rule="evenodd" clip-rule="evenodd" d="M208.105 94.9883C205.824 92.055 193.004 93.576 187.191 94.2821C185.453 94.4994 185.182 92.9784 186.757 91.8377C196.969 84.6672 213.755 86.7314 215.71 89.1216C217.666 91.5661 215.167 108.351 205.606 116.391C204.14 117.64 202.727 116.989 203.379 115.359C205.552 109.981 210.387 97.8674 208.105 94.9883Z" fill="#FF9900"/>
</svg>
